<?plantuml 1.2026.1beta2?><svg xmlns="http://www.w3.org/2000/svg" xmlns:xlink="http://www.w3.org/1999/xlink" contentStyleType="text/css" data-diagram-type="CLASS" height="1010px" preserveAspectRatio="none" style="width:1872px;height:1010px;background:#FFFFFF;" version="1.1" viewBox="0 0 1872 1010" width="1872px" zoomAndPan="magnify"><defs/><g><!--cluster MOTEUR DE JEU--><g class="cluster" data-qualified-name="MOTEUR DE JEU" data-source-line="7" id="ent0002"><polygon fill="#DDFFDD" points="16,202.89,146.168,202.89,153.168,225.1869,429,225.1869,429,860.2,16,860.2,16,202.89" style="stroke:#000000;stroke-width:1.5;"/><line style="stroke:#000000;stroke-width:1.5;" x1="16" x2="153.168" y1="225.1869" y2="225.1869"/><text fill="#000000" font-family="sans-serif" font-size="14" font-weight="bold" lengthAdjust="spacing" textLength="124.168" x="20" y="217.8851">MOTEUR DE JEU</text></g><!--cluster SAUVEGARDE DONNEES--><g class="cluster" data-qualified-name="SAUVEGARDE DONNEES" data-source-line="48" id="ent0010"><polygon fill="#FFDDDD" points="453,469.82,647.0156,469.82,654.0156,492.1169,1011,492.1169,1011,835.75,453,835.75,453,469.82" style="stroke:#000000;stroke-width:1.5;"/><line style="stroke:#000000;stroke-width:1.5;" x1="453" x2="654.0156" y1="492.1169" y2="492.1169"/><text fill="#000000" font-family="sans-serif" font-size="14" font-weight="bold" lengthAdjust="spacing" textLength="188.0156" x="457" y="484.8151">SAUVEGARDE DONNEES</text></g><!--cluster AUDIO--><g class="cluster" data-qualified-name="AUDIO" data-source-line="74" id="ent0015"><polygon fill="#FFFFDD" points="1450,461.67,1506.9346,461.67,1513.9346,483.9669,1855,483.9669,1855,625.86,1450,625.86,1450,461.67" style="stroke:#000000;stroke-width:1.5;"/><line style="stroke:#000000;stroke-width:1.5;" x1="1450" x2="1513.9346" y1="483.9669" y2="483.9669"/><text fill="#000000" font-family="sans-serif" font-size="14" font-weight="bold" lengthAdjust="spacing" textLength="50.9346" x="1454" y="476.6651">AUDIO</text></g><!--cluster INTERFACES--><g class="cluster" data-qualified-name="INTERFACES" data-source-line="90" id="ent0018"><polygon fill="#DDDDFF" points="1061,6,1164.1387,6,1171.1387,28.2969,1698,28.2969,1698,153.89,1061,153.89,1061,6" style="stroke:#000000;stroke-width:1.5;"/><line style="stroke:#000000;stroke-width:1.5;" x1="1061" x2="1171.1387" y1="28.2969" y2="28.2969"/><text fill="#000000" font-family="sans-serif" font-size="14" font-weight="bold" lengthAdjust="spacing" textLength="97.1387" x="1065" y="20.9951">INTERFACES</text></g><!--cluster SERVEUR--><g class="cluster" data-qualified-name="SERVEUR" data-source-line="113" id="ent0022"><polygon fill="#FFDDFF" points="1035,696.01,1113.9736,696.01,1120.9736,718.3069,1374,718.3069,1374,1003.79,1035,1003.79,1035,696.01" style="stroke:#000000;stroke-width:1.5;"/><line style="stroke:#000000;stroke-width:1.5;" x1="1035" x2="1120.9736" y1="718.3069" y2="718.3069"/><text fill="#000000" font-family="sans-serif" font-size="14" font-weight="bold" lengthAdjust="spacing" textLength="72.9736" x="1039" y="711.0051">SERVEUR</text></g><!--cluster LEADERBOARD--><g class="cluster" data-qualified-name="LEADERBOARD" data-source-line="136" id="ent0027"><polygon fill="#DDFFFF" points="1035,461.67,1158.0928,461.67,1165.0928,483.9669,1426,483.9669,1426,625.86,1035,625.86,1035,461.67" style="stroke:#000000;stroke-width:1.5;"/><line style="stroke:#000000;stroke-width:1.5;" x1="1035" x2="1165.0928" y1="483.9669" y2="483.9669"/><text fill="#000000" font-family="sans-serif" font-size="14" font-weight="bold" lengthAdjust="spacing" textLength="117.0928" x="1039" y="476.6651">LEADERBOARD</text></g><g class="entity" data-qualified-name="MOTEUR DE JEU.N1" data-source-line="9" id="ent0003"><path d="M31.78,283.08 L31.78,338.4784 L208.2278,338.4784 L208.2278,293.08 L198.2278,283.08 L31.78,283.08" fill="#FEFFDD" style="stroke:#181818;stroke-width:0.5;"/><path d="M198.2278,283.08 L198.2278,293.08 L208.2278,293.08 L198.2278,283.08" fill="#FEFFDD" style="stroke:#181818;stroke-width:1;"/><text fill="#000000" font-family="sans-serif" font-size="13" lengthAdjust="spacing" textLength="98.0776" x="37.78" y="300.1469">LOGIQUE PURE</text><text fill="#000000" font-family="sans-serif" font-size="13" lengthAdjust="spacing" textLength="134.6973" x="37.78" y="315.2797">Pas de graphisme ici</text><text fill="#000000" font-family="sans-serif" font-size="13" lengthAdjust="spacing" textLength="155.4478" x="37.78" y="330.4125">Juste la physique du jeu</text></g><!--class Entite--><g class="entity" data-qualified-name="MOTEUR DE JEU.Entite" data-source-line="14" id="ent0004"><rect fill="#F1F1F1" height="129.4844" style="stroke:#181818;stroke-width:0.5;" width="152.082" x="120.96" y="488.52"/><ellipse cx="172.1509" cy="504.52" fill="#ADD1B2" rx="11" ry="11" style="stroke:#181818;stroke-width:1;"/><path d="M175.1197,510.1606 Q174.5415,510.4575 173.9009,510.5981 Q173.2603,510.7544 172.5572,510.7544 Q170.0572,510.7544 168.729,509.1138 Q167.4165,507.4575 167.4165,504.3325 Q167.4165,501.2075 168.729,499.5513 Q170.0572,497.895 172.5572,497.895 Q173.2603,497.895 173.9009,498.0513 Q174.5572,498.2075 175.1197,498.5044 L175.1197,501.2231 Q174.4947,500.645 173.9009,500.3794 Q173.3072,500.0981 172.6822,500.0981 Q171.3384,500.0981 170.6509,501.1763 Q169.9634,502.2388 169.9634,504.3325 Q169.9634,506.4263 170.6509,507.5044 Q171.3384,508.5669 172.6822,508.5669 Q173.3072,508.5669 173.9009,508.3013 Q174.4947,508.02 175.1197,507.4419 L175.1197,510.1606 Z " fill="#000000"/><text fill="#000000" font-family="sans-serif" font-size="14" lengthAdjust="spacing" textLength="41.2002" x="192.6509" y="509.3667">Entite</text><line style="stroke:#181818;stroke-width:0.5;" x1="121.96" x2="272.042" y1="520.52" y2="520.52"/><text fill="#000000" font-family="sans-serif" font-size="14" lengthAdjust="spacing" textLength="94.541" x="126.96" y="537.5151">x, y : position</text><text fill="#000000" font-family="sans-serif" font-size="14" lengthAdjust="spacing" textLength="140.082" x="126.96" y="553.812">width, height : taille</text><text fill="#000000" font-family="sans-serif" font-size="14" lengthAdjust="spacing" textLength="85.0801" x="126.96" y="570.1089">type : string</text><line style="stroke:#181818;stroke-width:1;" x1="121.96" x2="272.042" y1="577.4106" y2="577.4106"/><text fill="#000000" font-family="sans-serif" font-size="14" lengthAdjust="spacing" textLength="102.0332" x="126.96" y="594.4057">rect_collision()</text><text fill="#000000" font-family="sans-serif" font-size="14" lengthAdjust="spacing" textLength="60.252" x="126.96" y="610.7026">update()</text></g><!--class Thouverez--><g class="entity" data-qualified-name="MOTEUR DE JEU.Thouverez" data-source-line="23" id="ent0005"><rect fill="#F1F1F1" height="129.4844" style="stroke:#181818;stroke-width:0.5;" width="110.9092" x="250.55" y="714.71"/><ellipse cx="267.9934" cy="730.71" fill="#ADD1B2" rx="11" ry="11" style="stroke:#181818;stroke-width:1;"/><path d="M270.9621,736.3506 Q270.384,736.6475 269.7434,736.7881 Q269.1027,736.9444 268.3996,736.9444 Q265.8996,736.9444 264.5715,735.3038 Q263.259,733.6475 263.259,730.5225 Q263.259,727.3975 264.5715,725.7413 Q265.8996,724.085 268.3996,724.085 Q269.1027,724.085 269.7434,724.2413 Q270.3996,724.3975 270.9621,724.6944 L270.9621,727.4131 Q270.3371,726.835 269.7434,726.5694 Q269.1496,726.2881 268.5246,726.2881 Q267.1809,726.2881 266.4934,727.3663 Q265.8059,728.4288 265.8059,730.5225 Q265.8059,732.6163 266.4934,733.6944 Q267.1809,734.7569 268.5246,734.7569 Q269.1496,734.7569 269.7434,734.4913 Q270.3371,734.21 270.9621,733.6319 L270.9621,736.3506 Z " fill="#000000"/><text fill="#000000" font-family="sans-serif" font-size="14" lengthAdjust="spacing" textLength="73.4795" x="282.5363" y="735.5567">Thouverez</text><line style="stroke:#181818;stroke-width:0.5;" x1="251.55" x2="360.4592" y1="746.71" y2="746.71"/><text fill="#000000" font-family="sans-serif" font-size="14" lengthAdjust="spacing" textLength="75.1201" x="256.55" y="763.7051">is_jumping</text><text fill="#000000" font-family="sans-serif" font-size="14" lengthAdjust="spacing" textLength="63.0752" x="256.55" y="780.002">jump_vel</text><line style="stroke:#181818;stroke-width:1;" x1="251.55" x2="360.4592" y1="787.3038" y2="787.3038"/><text fill="#000000" font-family="sans-serif" font-size="14" lengthAdjust="spacing" textLength="98.9092" x="256.55" y="804.2989">sauter_court()</text><text fill="#000000" font-family="sans-serif" font-size="14" lengthAdjust="spacing" textLength="92.7432" x="256.55" y="820.5957">sauter_long()</text><text fill="#000000" font-family="sans-serif" font-size="14" lengthAdjust="spacing" textLength="60.252" x="256.55" y="836.8926">update()</text></g><!--class Jeu--><g class="entity" data-qualified-name="MOTEUR DE JEU.Jeu" data-source-line="32" id="ent0006"><rect fill="#F1F1F1" height="145.7813" style="stroke:#181818;stroke-width:0.5;" width="169.2949" x="243.35" y="237.89"/><ellipse cx="312.9398" cy="253.89" fill="#ADD1B2" rx="11" ry="11" style="stroke:#181818;stroke-width:1;"/><path d="M315.9086,259.5306 Q315.3305,259.8275 314.6898,259.9681 Q314.0492,260.1244 313.3461,260.1244 Q310.8461,260.1244 309.518,258.4838 Q308.2055,256.8275 308.2055,253.7025 Q308.2055,250.5775 309.518,248.9213 Q310.8461,247.265 313.3461,247.265 Q314.0492,247.265 314.6898,247.4213 Q315.3461,247.5775 315.9086,247.8744 L315.9086,250.5931 Q315.2836,250.015 314.6898,249.7494 Q314.0961,249.4681 313.4711,249.4681 Q312.1273,249.4681 311.4398,250.5463 Q310.7523,251.6088 310.7523,253.7025 Q310.7523,255.7963 311.4398,256.8744 Q312.1273,257.9369 313.4711,257.9369 Q314.0961,257.9369 314.6898,257.6713 Q315.2836,257.39 315.9086,256.8119 L315.9086,259.5306 Z " fill="#000000"/><text fill="#000000" font-family="sans-serif" font-size="14" lengthAdjust="spacing" textLength="21.6152" x="333.4398" y="258.7367">Jeu</text><line style="stroke:#181818;stroke-width:0.5;" x1="244.35" x2="411.6449" y1="269.89" y2="269.89"/><text fill="#000000" font-family="sans-serif" font-size="14" lengthAdjust="spacing" textLength="44.5703" x="249.35" y="286.8851">joueur</text><text fill="#000000" font-family="sans-serif" font-size="14" lengthAdjust="spacing" textLength="77.2324" x="249.35" y="303.182">obstacles[]</text><text fill="#000000" font-family="sans-serif" font-size="14" lengthAdjust="spacing" textLength="53.416" x="249.35" y="319.4789">bonus[]</text><text fill="#000000" font-family="sans-serif" font-size="14" lengthAdjust="spacing" textLength="157.2949" x="249.35" y="335.7757">score, distance, bedos</text><line style="stroke:#181818;stroke-width:1;" x1="244.35" x2="411.6449" y1="343.0775" y2="343.0775"/><text fill="#000000" font-family="sans-serif" font-size="14" lengthAdjust="spacing" textLength="60.252" x="249.35" y="360.0726">update()</text><text fill="#000000" font-family="sans-serif" font-size="14" lengthAdjust="spacing" textLength="76.8291" x="249.35" y="376.3695">fin_partie()</text></g><g class="entity" data-qualified-name="SAUVEGARDE DONNEES.N2" data-source-line="50" id="ent0011"><path d="M469.47,508.11 L469.47,598.4303 L736.5384,598.4303 L736.5384,518.11 L726.5384,508.11 L469.47,508.11" fill="#FEFFDD" style="stroke:#181818;stroke-width:0.5;"/><path d="M726.5384,508.11 L726.5384,518.11 L736.5384,518.11 L726.5384,508.11" fill="#FEFFDD" style="stroke:#181818;stroke-width:1;"/><text fill="#000000" font-family="sans-serif" font-size="13" lengthAdjust="spacing" textLength="143.2539" x="475.47" y="525.1769">TRIPLE COUCHE SYNC</text><text fill="#000000" font-family="sans-serif" font-size="13" lengthAdjust="spacing" textLength="186.875" x="475.47" y="540.3097">1. Sauvegarde LOCAL rapide</text><text fill="#000000" font-family="sans-serif" font-size="13" lengthAdjust="spacing" textLength="156.3237" x="475.47" y="555.4425">2. Envoie a l'API (async)</text><text fill="#000000" font-family="sans-serif" font-size="13" lengthAdjust="spacing" textLength="177.6455" x="475.47" y="570.5753">3. Recoit scores du serveur</text><text fill="#000000" font-family="sans-serif" font-size="17" font-weight="bold" lengthAdjust="spacing" textLength="246.0684" x="475.47" y="589.421">&gt; ZERO perte de donnees</text></g><!--class GestionScores--><g class="entity" data-qualified-name="SAUVEGARDE DONNEES.GestionScores" data-source-line="57" id="ent0012"><rect fill="#F1F1F1" height="96.8906" style="stroke:#181818;stroke-width:0.5;" width="223.6338" x="771.18" y="504.82"/><ellipse cx="828.554" cy="520.82" fill="#ADD1B2" rx="11" ry="11" style="stroke:#181818;stroke-width:1;"/><path d="M831.5228,526.4606 Q830.9446,526.7575 830.304,526.8981 Q829.6634,527.0544 828.9603,527.0544 Q826.4603,527.0544 825.1321,525.4137 Q823.8196,523.7575 823.8196,520.6325 Q823.8196,517.5075 825.1321,515.8512 Q826.4603,514.195 828.9603,514.195 Q829.6634,514.195 830.304,514.3512 Q830.9603,514.5075 831.5228,514.8044 L831.5228,517.5231 Q830.8978,516.945 830.304,516.6794 Q829.7103,516.3981 829.0853,516.3981 Q827.7415,516.3981 827.054,517.4762 Q826.3665,518.5387 826.3665,520.6325 Q826.3665,522.7262 827.054,523.8044 Q827.7415,524.8669 829.0853,524.8669 Q829.7103,524.8669 830.304,524.6012 Q830.8978,524.32 831.5228,523.7419 L831.5228,526.4606 Z " fill="#000000"/><text fill="#000000" font-family="sans-serif" font-size="14" lengthAdjust="spacing" textLength="100.3857" x="849.054" y="525.6667">GestionScores</text><line style="stroke:#181818;stroke-width:0.5;" x1="772.18" x2="993.8138" y1="536.82" y2="536.82"/><line style="stroke:#181818;stroke-width:1;" x1="772.18" x2="993.8138" y1="544.82" y2="544.82"/><text fill="#000000" font-family="sans-serif" font-size="14" lengthAdjust="spacing" textLength="117.3047" x="777.18" y="561.8151">charger_scores()</text><text fill="#000000" font-family="sans-serif" font-size="14" lengthAdjust="spacing" textLength="211.6338" x="777.18" y="578.112">sauvegarder_nouveau_score()</text><text fill="#000000" font-family="sans-serif" font-size="14" lengthAdjust="spacing" textLength="160.8838" x="777.18" y="594.4089">synchroniser_serveur()</text></g><!--class FichierJSON--><g class="entity" data-qualified-name="SAUVEGARDE DONNEES.FichierJSON" data-source-line="64" id="ent0013"><rect fill="#F1F1F1" height="80.5938" style="stroke:#181818;stroke-width:0.5;" width="137.3779" x="814.31" y="739.16"/><ellipse cx="840.1544" cy="755.16" fill="#ADD1B2" rx="11" ry="11" style="stroke:#181818;stroke-width:1;"/><path d="M843.1231,760.8006 Q842.545,761.0975 841.9044,761.2381 Q841.2638,761.3944 840.5606,761.3944 Q838.0606,761.3944 836.7325,759.7538 Q835.42,758.0975 835.42,754.9725 Q835.42,751.8475 836.7325,750.1913 Q838.0606,748.535 840.5606,748.535 Q841.2638,748.535 841.9044,748.6913 Q842.5606,748.8475 843.1231,749.1444 L843.1231,751.8631 Q842.4981,751.285 841.9044,751.0194 Q841.3106,750.7381 840.6856,750.7381 Q839.3419,750.7381 838.6544,751.8163 Q837.9669,752.8788 837.9669,754.9725 Q837.9669,757.0663 838.6544,758.1444 Q839.3419,759.2069 840.6856,759.2069 Q841.3106,759.2069 841.9044,758.9413 Q842.4981,758.66 843.1231,758.0819 L843.1231,760.8006 Z " fill="#000000"/><text fill="#000000" font-family="sans-serif" font-size="14" lengthAdjust="spacing" textLength="81.2793" x="856.5642" y="760.0067">FichierJSON</text><line style="stroke:#181818;stroke-width:0.5;" x1="815.31" x2="950.6879" y1="771.16" y2="771.16"/><text fill="#000000" font-family="sans-serif" font-size="14" lengthAdjust="spacing" textLength="125.3779" x="820.31" y="788.1551">thouv_scores.json</text><line style="stroke:#181818;stroke-width:1;" x1="815.31" x2="950.6879" y1="795.4569" y2="795.4569"/><text fill="#000000" font-family="sans-serif" font-size="14" lengthAdjust="spacing" textLength="108.3359" x="820.31" y="812.452">lecture/ecriture</text></g><g class="entity" data-qualified-name="AUDIO.N3" data-source-line="76" id="ent0016"><path d="M1466,533.13 L1466,573.3956 L1624.0078,573.3956 L1624.0078,543.13 L1614.0078,533.13 L1466,533.13" fill="#FEFFDD" style="stroke:#181818;stroke-width:0.5;"/><path d="M1614.0078,533.13 L1614.0078,543.13 L1624.0078,543.13 L1614.0078,533.13" fill="#FEFFDD" style="stroke:#181818;stroke-width:1;"/><text fill="#000000" font-family="sans-serif" font-size="13" lengthAdjust="spacing" textLength="110.7729" x="1472" y="550.1969">Gestion des sons</text><text fill="#000000" font-family="sans-serif" font-size="13" lengthAdjust="spacing" textLength="137.0078" x="1472" y="565.3297">Effets sonores du jeu</text></g><!--class GestionnaireMusique--><g class="entity" data-qualified-name="AUDIO.GestionnaireMusique" data-source-line="80" id="ent0017"><rect fill="#F1F1F1" height="113.1875" style="stroke:#181818;stroke-width:0.5;" width="179.793" x="1659.1" y="496.67"/><ellipse cx="1674.1" cy="512.67" fill="#ADD1B2" rx="11" ry="11" style="stroke:#181818;stroke-width:1;"/><path d="M1677.0688,518.3106 Q1676.4906,518.6075 1675.85,518.7481 Q1675.2094,518.9044 1674.5063,518.9044 Q1672.0063,518.9044 1670.6781,517.2638 Q1669.3656,515.6075 1669.3656,512.4825 Q1669.3656,509.3575 1670.6781,507.7012 Q1672.0063,506.045 1674.5063,506.045 Q1675.2094,506.045 1675.85,506.2012 Q1676.5063,506.3575 1677.0688,506.6544 L1677.0688,509.3731 Q1676.4438,508.795 1675.85,508.5294 Q1675.2563,508.2481 1674.6313,508.2481 Q1673.2875,508.2481 1672.6,509.3262 Q1671.9125,510.3887 1671.9125,512.4825 Q1671.9125,514.5763 1672.6,515.6544 Q1673.2875,516.7169 1674.6313,516.7169 Q1675.2563,516.7169 1675.85,516.4513 Q1676.4438,516.17 1677.0688,515.5919 L1677.0688,518.3106 Z " fill="#000000"/><text fill="#000000" font-family="sans-serif" font-size="14" lengthAdjust="spacing" textLength="147.793" x="1688.1" y="517.5167">GestionnaireMusique</text><line style="stroke:#181818;stroke-width:0.5;" x1="1660.1" x2="1837.893" y1="528.67" y2="528.67"/><text fill="#000000" font-family="sans-serif" font-size="14" lengthAdjust="spacing" textLength="79.3789" x="1665.1" y="545.6651">titre_actuel</text><text fill="#000000" font-family="sans-serif" font-size="14" lengthAdjust="spacing" textLength="51.8643" x="1665.1" y="561.962">volume</text><line style="stroke:#181818;stroke-width:1;" x1="1660.1" x2="1837.893" y1="569.2638" y2="569.2638"/><text fill="#000000" font-family="sans-serif" font-size="14" lengthAdjust="spacing" textLength="83.8564" x="1665.1" y="586.2589">jouer_saut()</text><text fill="#000000" font-family="sans-serif" font-size="14" lengthAdjust="spacing" textLength="88.5732" x="1665.1" y="602.5557">jouer_bedo()</text></g><g class="entity" data-qualified-name="INTERFACES.N4" data-source-line="92" id="ent0019"><path d="M1077.48,61.75 L1077.48,117.1484 L1288.5225,117.1484 L1288.5225,71.75 L1278.5225,61.75 L1077.48,61.75" fill="#FEFFDD" style="stroke:#181818;stroke-width:0.5;"/><path d="M1278.5225,61.75 L1278.5225,71.75 L1288.5225,71.75 L1278.5225,61.75" fill="#FEFFDD" style="stroke:#181818;stroke-width:1;"/><text fill="#000000" font-family="sans-serif" font-size="13" lengthAdjust="spacing" textLength="130.457" x="1083.48" y="78.8169">Deux modes de jeu:</text><text fill="#000000" font-family="sans-serif" font-size="13" lengthAdjust="spacing" textLength="190.0425" x="1083.48" y="93.9497">- Pygame (graphique 60 FPS)</text><text fill="#000000" font-family="sans-serif" font-size="13" lengthAdjust="spacing" textLength="150.2363" x="1083.48" y="109.0825">- Terminal (ASCII retro)</text></g><!--class InterfaceGraphique--><g class="entity" data-qualified-name="INTERFACES.InterfaceGraphique" data-source-line="97" id="ent0020"><rect fill="#F1F1F1" height="96.8906" style="stroke:#181818;stroke-width:0.5;" width="167.8848" x="1323.06" y="41"/><ellipse cx="1338.06" cy="57" fill="#ADD1B2" rx="11" ry="11" style="stroke:#181818;stroke-width:1;"/><path d="M1341.0288,62.6406 Q1340.4506,62.9375 1339.81,63.0781 Q1339.1694,63.2344 1338.4663,63.2344 Q1335.9663,63.2344 1334.6381,61.5938 Q1333.3256,59.9375 1333.3256,56.8125 Q1333.3256,53.6875 1334.6381,52.0313 Q1335.9663,50.375 1338.4663,50.375 Q1339.1694,50.375 1339.81,50.5313 Q1340.4663,50.6875 1341.0288,50.9844 L1341.0288,53.7031 Q1340.4038,53.125 1339.81,52.8594 Q1339.2163,52.5781 1338.5913,52.5781 Q1337.2475,52.5781 1336.56,53.6563 Q1335.8725,54.7188 1335.8725,56.8125 Q1335.8725,58.9063 1336.56,59.9844 Q1337.2475,61.0469 1338.5913,61.0469 Q1339.2163,61.0469 1339.81,60.7813 Q1340.4038,60.5 1341.0288,59.9219 L1341.0288,62.6406 Z " fill="#000000"/><text fill="#000000" font-family="sans-serif" font-size="14" lengthAdjust="spacing" textLength="135.8848" x="1352.06" y="61.8467">InterfaceGraphique</text><line style="stroke:#181818;stroke-width:0.5;" x1="1324.06" x2="1489.9448" y1="73" y2="73"/><text fill="#000000" font-family="sans-serif" font-size="14" lengthAdjust="spacing" textLength="56.8887" x="1329.06" y="89.9951">pygame</text><line style="stroke:#181818;stroke-width:1;" x1="1324.06" x2="1489.9448" y1="97.2969" y2="97.2969"/><text fill="#000000" font-family="sans-serif" font-size="14" lengthAdjust="spacing" textLength="117.1406" x="1329.06" y="114.292">dessiner_menu()</text><text fill="#000000" font-family="sans-serif" font-size="14" lengthAdjust="spacing" textLength="98.5195" x="1329.06" y="130.5889">dessiner_jeu()</text></g><!--class InterfaceTerminal--><g class="entity" data-qualified-name="INTERFACES.InterfaceTerminal" data-source-line="104" id="ent0021"><rect fill="#F1F1F1" height="96.8906" style="stroke:#181818;stroke-width:0.5;" width="156.4688" x="1525.77" y="41"/><ellipse cx="1540.77" cy="57" fill="#ADD1B2" rx="11" ry="11" style="stroke:#181818;stroke-width:1;"/><path d="M1543.7388,62.6406 Q1543.1606,62.9375 1542.52,63.0781 Q1541.8794,63.2344 1541.1763,63.2344 Q1538.6763,63.2344 1537.3481,61.5938 Q1536.0356,59.9375 1536.0356,56.8125 Q1536.0356,53.6875 1537.3481,52.0313 Q1538.6763,50.375 1541.1763,50.375 Q1541.8794,50.375 1542.52,50.5313 Q1543.1763,50.6875 1543.7388,50.9844 L1543.7388,53.7031 Q1543.1138,53.125 1542.52,52.8594 Q1541.9263,52.5781 1541.3013,52.5781 Q1539.9575,52.5781 1539.27,53.6563 Q1538.5825,54.7188 1538.5825,56.8125 Q1538.5825,58.9063 1539.27,59.9844 Q1539.9575,61.0469 1541.3013,61.0469 Q1541.9263,61.0469 1542.52,60.7813 Q1543.1138,60.5 1543.7388,59.9219 L1543.7388,62.6406 Z " fill="#000000"/><text fill="#000000" font-family="sans-serif" font-size="14" lengthAdjust="spacing" textLength="124.4688" x="1554.77" y="61.8467">InterfaceTerminal</text><line style="stroke:#181818;stroke-width:0.5;" x1="1526.77" x2="1681.2388" y1="73" y2="73"/><text fill="#000000" font-family="sans-serif" font-size="14" lengthAdjust="spacing" textLength="45.5273" x="1531.77" y="89.9951">curses</text><line style="stroke:#181818;stroke-width:1;" x1="1526.77" x2="1681.2388" y1="97.2969" y2="97.2969"/><text fill="#000000" font-family="sans-serif" font-size="14" lengthAdjust="spacing" textLength="117.1406" x="1531.77" y="114.292">dessiner_menu()</text><text fill="#000000" font-family="sans-serif" font-size="14" lengthAdjust="spacing" textLength="98.5195" x="1531.77" y="130.5889">dessiner_jeu()</text></g><g class="entity" data-qualified-name="SERVEUR.N5" data-source-line="115" id="ent0023"><path d="M1051.1,751.75 L1051.1,807.1484 L1192.8959,807.1484 L1192.8959,761.75 L1182.8959,751.75 L1051.1,751.75" fill="#FEFFDD" style="stroke:#181818;stroke-width:0.5;"/><path d="M1182.8959,751.75 L1182.8959,761.75 L1192.8959,761.75 L1182.8959,751.75" fill="#FEFFDD" style="stroke:#181818;stroke-width:1;"/><text fill="#000000" font-family="sans-serif" font-size="13" lengthAdjust="spacing" textLength="87.3945" x="1057.1" y="768.8169">RAILWAY.APP</text><text fill="#000000" font-family="sans-serif" font-size="13" lengthAdjust="spacing" textLength="107.085" x="1057.1" y="783.9497">Serveur en ligne</text><text fill="#000000" font-family="sans-serif" font-size="13" lengthAdjust="spacing" textLength="120.7959" x="1057.1" y="799.0825">Certificat SSL auto</text></g><!--class APIFlask--><g class="entity" data-qualified-name="SERVEUR.APIFlask" data-source-line="120" id="ent0024"><rect fill="#F1F1F1" height="96.8906" style="stroke:#181818;stroke-width:0.5;" width="129.3594" x="1228.32" y="731.01"/><ellipse cx="1260.9996" cy="747.01" fill="#ADD1B2" rx="11" ry="11" style="stroke:#181818;stroke-width:1;"/><path d="M1263.9684,752.6506 Q1263.3903,752.9475 1262.7496,753.0881 Q1262.109,753.2444 1261.4059,753.2444 Q1258.9059,753.2444 1257.5778,751.6038 Q1256.2653,749.9475 1256.2653,746.8225 Q1256.2653,743.6975 1257.5778,742.0413 Q1258.9059,740.385 1261.4059,740.385 Q1262.109,740.385 1262.7496,740.5413 Q1263.4059,740.6975 1263.9684,740.9944 L1263.9684,743.7131 Q1263.3434,743.135 1262.7496,742.8694 Q1262.1559,742.5881 1261.5309,742.5881 Q1260.1871,742.5881 1259.4996,743.6663 Q1258.8121,744.7288 1258.8121,746.8225 Q1258.8121,748.9163 1259.4996,749.9944 Q1260.1871,751.0569 1261.5309,751.0569 Q1262.1559,751.0569 1262.7496,750.7913 Q1263.3434,750.51 1263.9684,749.9319 L1263.9684,752.6506 Z " fill="#000000"/><text fill="#000000" font-family="sans-serif" font-size="14" lengthAdjust="spacing" textLength="58.0713" x="1278.9284" y="751.8567">APIFlask</text><line style="stroke:#181818;stroke-width:0.5;" x1="1229.32" x2="1356.6794" y1="763.01" y2="763.01"/><text fill="#000000" font-family="sans-serif" font-size="14" lengthAdjust="spacing" textLength="62.6377" x="1234.32" y="780.0051">Flask 3.0</text><line style="stroke:#181818;stroke-width:1;" x1="1229.32" x2="1356.6794" y1="787.3069" y2="787.3069"/><text fill="#000000" font-family="sans-serif" font-size="14" lengthAdjust="spacing" textLength="117.3594" x="1234.32" y="804.302">POST /api/scores</text><text fill="#000000" font-family="sans-serif" font-size="14" lengthAdjust="spacing" textLength="108.7051" x="1234.32" y="820.5989">GET /api/scores</text></g><!--class BaseDonnees--><g class="entity" data-qualified-name="SERVEUR.BaseDonnees" data-source-line="127" id="ent0025"><rect fill="#F1F1F1" height="80.5938" style="stroke:#181818;stroke-width:0.5;" width="127.7031" x="1229.15" y="907.2"/><ellipse cx="1244.15" cy="923.2" fill="#ADD1B2" rx="11" ry="11" style="stroke:#181818;stroke-width:1;"/><path d="M1247.1188,928.8406 Q1246.5406,929.1375 1245.9,929.2781 Q1245.2594,929.4344 1244.5563,929.4344 Q1242.0563,929.4344 1240.7281,927.7937 Q1239.4156,926.1375 1239.4156,923.0125 Q1239.4156,919.8875 1240.7281,918.2312 Q1242.0563,916.575 1244.5563,916.575 Q1245.2594,916.575 1245.9,916.7312 Q1246.5563,916.8875 1247.1188,917.1844 L1247.1188,919.9031 Q1246.4938,919.325 1245.9,919.0594 Q1245.3063,918.7781 1244.6813,918.7781 Q1243.3375,918.7781 1242.65,919.8562 Q1241.9625,920.9187 1241.9625,923.0125 Q1241.9625,925.1062 1242.65,926.1844 Q1243.3375,927.2469 1244.6813,927.2469 Q1245.3063,927.2469 1245.9,926.9812 Q1246.4938,926.7 1247.1188,926.1219 L1247.1188,928.8406 Z " fill="#000000"/><text fill="#000000" font-family="sans-serif" font-size="14" lengthAdjust="spacing" textLength="95.7031" x="1258.15" y="928.0467">BaseDonnees</text><line style="stroke:#181818;stroke-width:0.5;" x1="1230.15" x2="1355.8531" y1="939.2" y2="939.2"/><text fill="#000000" font-family="sans-serif" font-size="14" lengthAdjust="spacing" textLength="45.6982" x="1235.15" y="956.1951">SQLite</text><line style="stroke:#181818;stroke-width:0.5;" x1="1230.15" x2="1355.8531" y1="963.4969" y2="963.4969"/><text fill="#000000" font-family="sans-serif" font-size="14" lengthAdjust="spacing" textLength="65.3242" x="1235.15" y="980.492">(Railway)</text></g><g class="entity" data-qualified-name="LEADERBOARD.N6" data-source-line="138" id="ent0028"><path d="M1050.96,525.57 L1050.96,580.9684 L1239.0494,580.9684 L1239.0494,535.57 L1229.0494,525.57 L1050.96,525.57" fill="#FEFFDD" style="stroke:#181818;stroke-width:0.5;"/><path d="M1229.0494,525.57 L1229.0494,535.57 L1239.0494,535.57 L1229.0494,525.57" fill="#FEFFDD" style="stroke:#181818;stroke-width:1;"/><text fill="#000000" font-family="sans-serif" font-size="13" lengthAdjust="spacing" textLength="158.2661" x="1056.96" y="542.6369">191 scores deduplicates</text><text fill="#000000" font-family="sans-serif" font-size="13" lengthAdjust="spacing" textLength="160.7861" x="1056.96" y="557.7697">Affiche tous les resultats</text><text fill="#000000" font-family="sans-serif" font-size="13" lengthAdjust="spacing" textLength="167.0894" x="1056.96" y="572.9025">Auto-refresh 10 secondes</text></g><!--class Leaderboard--><g class="entity" data-qualified-name="LEADERBOARD.Leaderboard" data-source-line="143" id="ent0029"><rect fill="#F1F1F1" height="113.1875" style="stroke:#181818;stroke-width:0.5;" width="136.0996" x="1273.95" y="496.67"/><ellipse cx="1295.78" cy="512.67" fill="#ADD1B2" rx="11" ry="11" style="stroke:#181818;stroke-width:1;"/><path d="M1298.7487,518.3106 Q1298.1706,518.6075 1297.53,518.7481 Q1296.8894,518.9044 1296.1862,518.9044 Q1293.6862,518.9044 1292.3581,517.2638 Q1291.0456,515.6075 1291.0456,512.4825 Q1291.0456,509.3575 1292.3581,507.7012 Q1293.6862,506.045 1296.1862,506.045 Q1296.8894,506.045 1297.53,506.2012 Q1298.1862,506.3575 1298.7487,506.6544 L1298.7487,509.3731 Q1298.1237,508.795 1297.53,508.5294 Q1296.9362,508.2481 1296.3112,508.2481 Q1294.9675,508.2481 1294.28,509.3262 Q1293.5925,510.3887 1293.5925,512.4825 Q1293.5925,514.5763 1294.28,515.6544 Q1294.9675,516.7169 1296.3112,516.7169 Q1296.9362,516.7169 1297.53,516.4513 Q1298.1237,516.17 1298.7487,515.5919 L1298.7487,518.3106 Z " fill="#000000"/><text fill="#000000" font-family="sans-serif" font-size="14" lengthAdjust="spacing" textLength="88.9219" x="1311.2978" y="517.5167">Leaderboard</text><line style="stroke:#181818;stroke-width:0.5;" x1="1274.95" x2="1409.0496" y1="528.67" y2="528.67"/><text fill="#000000" font-family="sans-serif" font-size="14" lengthAdjust="spacing" textLength="81.5117" x="1279.95" y="545.6651">HTML5 + JS</text><line style="stroke:#181818;stroke-width:1;" x1="1274.95" x2="1409.0496" y1="552.9669" y2="552.9669"/><text fill="#000000" font-family="sans-serif" font-size="14" lengthAdjust="spacing" textLength="124.0996" x="1279.95" y="569.962">afficher_tableau()</text><text fill="#000000" font-family="sans-serif" font-size="14" lengthAdjust="spacing" textLength="122.2197" x="1279.95" y="586.2589">trier_par_joueur()</text><text fill="#000000" font-family="sans-serif" font-size="14" lengthAdjust="spacing" textLength="99.2646" x="1279.95" y="602.5557">auto_refresh()</text></g><!--reverse link Entite to Thouverez--><g class="link" data-entity-1="ent0004" data-entity-2="ent0005" data-link-type="extension" data-source-line="42" id="lnk7"><path codeLine="42" d="M235.9611,634.3978 C250.6211,664.5478 260.2,684.26 274.87,714.43" fill="none" id="Entite-backto-Thouverez" style="stroke:#181818;stroke-width:1;"/><polygon fill="none" points="228.09,618.21,230.5652,637.0215,241.357,631.7741,228.09,618.21" style="stroke:#181818;stroke-width:1;"/><text fill="#000000" font-family="sans-serif" font-size="13" lengthAdjust="spacing" textLength="38.2891" x="260" y="668.5769">herite</text></g><!--link Jeu to Thouverez--><g class="link" data-entity-1="ent0006" data-entity-2="ent0005" data-link-type="dependency" data-source-line="43" id="lnk8"><path codeLine="43" d="M332.79,384.12 C333.29,394.04 333.72,404.11 334,413.67 C337.11,519.22 325.1313,635.5685 315.8213,708.3485" fill="none" id="Jeu-to-Thouverez" style="stroke:#181818;stroke-width:1;"/><polygon fill="#181818" points="315.06,714.3,320.1696,705.8803,315.6944,709.3404,312.2343,704.8652,315.06,714.3" style="stroke:#181818;stroke-width:1;"/><text fill="#000000" font-family="sans-serif" font-size="13" lengthAdjust="spacing" textLength="53.9995" x="336" y="557.8369">possede</text></g><!--link Jeu to Entite--><g class="link" data-entity-1="ent0006" data-entity-2="ent0004" data-link-type="dependency" data-source-line="44" id="lnk9"><path codeLine="44" d="M288.7,383.94 C270.61,417.14 252.1999,450.9309 234.6999,483.0609" fill="none" id="Jeu-to-Entite" style="stroke:#181818;stroke-width:1;"/><polygon fill="#181818" points="231.83,488.33,239.6476,482.3396,234.2216,483.9391,232.6221,478.513,231.83,488.33" style="stroke:#181818;stroke-width:1;"/><text fill="#000000" font-family="sans-serif" font-size="13" lengthAdjust="spacing" textLength="53.3838" x="272" y="434.2369">contient</text></g><!--link GestionScores to FichierJSON--><g class="link" data-entity-1="ent0012" data-entity-2="ent0013" data-link-type="dependency" data-source-line="70" id="lnk14"><path codeLine="70" d="M883,602.09 C883,642.85 883,694.75 883,732.93" fill="none" id="GestionScores-to-FichierJSON" style="stroke:#181818;stroke-width:1;"/><polygon fill="#181818" points="883,738.93,887,729.93,883,733.93,879,729.93,883,738.93" style="stroke:#181818;stroke-width:1;"/></g><!--link APIFlask to BaseDonnees--><g class="link" data-entity-1="ent0024" data-entity-2="ent0025" data-link-type="dependency" data-source-line="132" id="lnk26"><path codeLine="132" d="M1293,828.03 C1293,852.95 1293,877.11 1293,900.76" fill="none" id="APIFlask-to-BaseDonnees" style="stroke:#181818;stroke-width:1;"/><polygon fill="#181818" points="1293,906.76,1297,897.76,1293,901.76,1289,897.76,1293,906.76" style="stroke:#181818;stroke-width:1;"/></g><!--link Jeu to GestionScores--><g class="link" data-entity-1="ent0006" data-entity-2="ent0012" data-link-type="dependency" data-source-line="154" id="lnk30"><path codeLine="154" d="M413.13,336.5 C519.31,367.94 694.15,421.98 754,453.67 C780.28,467.59 802.1322,483.0225 824.2422,500.7825" fill="none" id="Jeu-to-GestionScores" style="stroke:#181818;stroke-width:1;"/><polygon fill="#181818" points="828.92,504.54,824.4083,495.7853,825.0219,501.4088,819.3984,502.0223,828.92,504.54" style="stroke:#181818;stroke-width:1;"/><text fill="#000000" font-family="sans-serif" font-size="13" lengthAdjust="spacing" textLength="47.6899" x="770.0298" y="426.7369">appelle</text><text fill="#000000" font-family="sans-serif" font-size="13" lengthAdjust="spacing" textLength="115.7495" x="736" y="441.8697">pour sauvegarder</text></g><!--link Jeu to GestionnaireMusique--><g class="link" data-entity-1="ent0006" data-entity-2="ent0017" data-link-type="dependency" data-source-line="155" id="lnk31"><path codeLine="155" d="M412.88,325.55 C590.25,353.7 1013.37,417.51 1371,445.67 C1401.03,448.04 1614.1,442.3 1642,453.67 C1664.81,462.97 1681.4777,475.2774 1698.6877,492.1674" fill="none" id="Jeu-to-GestionnaireMusique" style="stroke:#181818;stroke-width:1;"/><polygon fill="#181818" points="1702.97,496.37,1699.3484,487.2112,1699.4014,492.8678,1693.7448,492.9209,1702.97,496.37" style="stroke:#181818;stroke-width:1;"/><text fill="#000000" font-family="sans-serif" font-size="13" lengthAdjust="spacing" textLength="47.6899" x="1383.1274" y="426.7369">appelle</text><text fill="#000000" font-family="sans-serif" font-size="13" lengthAdjust="spacing" textLength="69.9448" x="1372" y="441.8697">pour audio</text></g><!--link InterfaceGraphique to Jeu--><g class="link" data-entity-1="ent0020" data-entity-2="ent0006" data-link-type="dependency" data-source-line="157" id="lnk32"><path codeLine="157" d="M1349.07,138.25 C1335.6,147.36 1320.84,155.91 1306,161.89 C993.99,287.55 592.8894,307.4159 418.8694,309.8559" fill="none" id="InterfaceGraphique-to-Jeu" style="stroke:#181818;stroke-width:1;"/><polygon fill="#181818" points="412.87,309.94,421.9252,313.8134,417.8695,309.8699,421.813,305.8142,412.87,309.94" style="stroke:#181818;stroke-width:1;"/><text fill="#000000" font-family="sans-serif" font-size="13" lengthAdjust="spacing" textLength="53.3457" x="1282" y="182.9569">controle</text></g><!--link InterfaceTerminal to Jeu--><g class="link" data-entity-1="ent0021" data-entity-2="ent0006" data-link-type="dependency" data-source-line="158" id="lnk33"><path codeLine="158" d="M1549.2,138.27 C1536.38,147.38 1522.28,155.93 1508,161.89 C1439.96,190.3 1417.05,176.91 1344,186.89 C999.41,233.99 593.723,280.245 419.043,299.725" fill="none" id="InterfaceTerminal-to-Jeu" style="stroke:#181818;stroke-width:1;"/><polygon fill="#181818" points="413.08,300.39,422.4679,303.3679,418.0492,299.8358,421.5812,295.4172,413.08,300.39" style="stroke:#181818;stroke-width:1;"/><text fill="#000000" font-family="sans-serif" font-size="13" lengthAdjust="spacing" textLength="53.3457" x="1486" y="182.9569">controle</text></g><!--link InterfaceGraphique to GestionnaireMusique--><g class="link" data-entity-1="ent0020" data-entity-2="ent0017" data-link-type="dependency" data-source-line="159" id="lnk34"><path codeLine="159" d="M1415.61,138.38 C1428.96,200.97 1459.84,311.1 1522,383.67 C1562.16,430.57 1592.34,416.98 1642,453.67 C1659.37,466.51 1672.6572,477.7046 1688.5372,492.3346" fill="none" id="InterfaceGraphique-to-GestionnaireMusique" style="stroke:#181818;stroke-width:1;"/><polygon fill="#181818" points="1692.95,496.4,1689.0411,487.36,1689.2727,493.0122,1683.6206,493.2437,1692.95,496.4" style="stroke:#181818;stroke-width:1;"/><text fill="#000000" font-family="sans-serif" font-size="13" lengthAdjust="spacing" textLength="105.6377" x="1523" y="315.3469">controle volume</text></g><!--link InterfaceTerminal to GestionnaireMusique--><g class="link" data-entity-1="ent0021" data-entity-2="ent0017" data-link-type="dependency" data-source-line="160" id="lnk35"><path codeLine="160" d="M1618.97,138.13 C1645.96,224.09 1700.843,398.8754 1729.623,490.5554" fill="none" id="InterfaceTerminal-to-GestionnaireMusique" style="stroke:#181818;stroke-width:1;"/><polygon fill="#181818" points="1731.42,496.28,1732.5408,486.4951,1729.9225,491.5095,1724.9081,488.8912,1731.42,496.28" style="stroke:#181818;stroke-width:1;"/><text fill="#000000" font-family="sans-serif" font-size="13" lengthAdjust="spacing" textLength="105.6377" x="1696" y="315.3469">controle volume</text></g><!--link GestionScores to APIFlask--><g class="link" data-entity-1="ent0012" data-entity-2="ent0024" data-link-type="dependency" data-source-line="162" id="lnk36"><path codeLine="162" d="M967.22,602.1 C988.91,613.38 1012.5,624.75 1035,633.86 C1055.62,642.2 1061.73,641.52 1083,648.01 C1139.61,665.26 1160.07,656.24 1210,688.01 C1227.8,699.34 1240.3114,710.9037 1253.7814,726.3837" fill="none" id="GestionScores-to-APIFlask" style="stroke:#181818;stroke-width:1;"/><polygon fill="#181818" points="1257.72,730.91,1254.8297,721.4948,1254.4378,727.1381,1248.7946,726.7463,1257.72,730.91" style="stroke:#181818;stroke-width:1;"/><text fill="#000000" font-family="sans-serif" font-size="13" lengthAdjust="spacing" textLength="82.8433" x="1202.0747" y="661.0769">envoie score</text><text fill="#000000" font-family="sans-serif" font-size="13" lengthAdjust="spacing" textLength="94.9927" x="1196" y="676.2097">(thread async)</text></g><!--link APIFlask to GestionScores--><g class="link" data-entity-1="ent0024" data-entity-2="ent0012" data-link-type="dependency" data-source-line="164" id="lnk37"><path codeLine="164" d="M1261.66,730.93 C1247.95,714.25 1230.33,697.36 1210,688.01 C1185.86,676.91 994.36,692.67 971,680.01 C939.96,663.18 920.2331,635.4211 905.7631,607.4011" fill="none" id="APIFlask-to-GestionScores" style="stroke:#181818;stroke-width:1;"/><polygon fill="#181818" points="903.01,602.07,903.5855,611.902,905.3042,606.5126,910.6937,608.2313,903.01,602.07" style="stroke:#181818;stroke-width:1;"/><text fill="#000000" font-family="sans-serif" font-size="13" lengthAdjust="spacing" textLength="102.3369" x="972" y="661.0769">retourne scores</text><text fill="#000000" font-family="sans-serif" font-size="13" lengthAdjust="spacing" textLength="91.5142" x="977.4114" y="676.2097">(sync backup)</text></g><!--link Leaderboard to APIFlask--><g class="link" data-entity-1="ent0029" data-entity-2="ent0024" data-link-type="dependency" data-source-line="166" id="lnk38"><path codeLine="166" d="M1329.76,610.26 C1321.65,647.35 1312.4101,689.6281 1304.7101,724.8881" fill="none" id="Leaderboard-to-APIFlask" style="stroke:#181818;stroke-width:1;"/><polygon fill="#181818" points="1303.43,730.75,1309.2581,722.8106,1304.4967,725.8651,1301.4422,721.1038,1303.43,730.75" style="stroke:#181818;stroke-width:1;"/><text fill="#000000" font-family="sans-serif" font-size="13" lengthAdjust="spacing" textLength="91.0698" x="1321.0254" y="661.0769">charge scores</text><text fill="#000000" font-family="sans-serif" font-size="13" lengthAdjust="spacing" textLength="91.1206" x="1321" y="676.2097">toutes les 10s</text></g><?plantuml-src fLTjRzis4FxkNt7eFYJ1uZHfrW8BbWAABQSE7DkLx7RPEXYCH5jCP5BZIz8iwt_VKL9esbRI0jC7GxeZxuvtppr7xy3fwId4awj1QDzQwfRnWaYoX6kIt2waC3pjY5n8w9MFjq1b91NtZ2zWJd95FKrKxPASIZXijNQivVg1oz4ad4RG3U4Yd7gALe7-o8B2gxKLh-2dRhVNwtRXiGNuSA4f40N3e_BJFeFHUV_ZD8JnD0gTS8nhKWeBIOgCgIK5bZ2dl30AhUG4Ykn1iRyDXTJ03JNb0ihJqalvKVuaEL4AGguPxdfqLhxkmmESG24Kqqnm9xzdgSxs8QDiaMbSe0dBS-hK-g6WA5LQOkgSjDrshv8cUfQ8F6SApUxkEOKfKg9fBVYs6Tya4-QEIlgF5o9JinkpB7n7zdjsH_CcpueOJINwDb9xVcjnBlZYXwEveCQBuqOOQgJx5DTAaoIdwi-_dEnQSED_gqH8kWyfmwKymRThcWhL5FLQ8FQPCpv386hM45rTnT_-RRUzZ9rWjIIhQsv3RxVVhwcno8gcw_hQr0aa0jyerwrl6rYFW-cdy3o8kc4Zq3rrTpGSXc6CQBTOtqRx6tUuITGVOwzsHjFEXn3Ygs77gOuE82OOye98XFvWr0a6WFXdwGfyRmumx3l1q2haEy6u3xj4FV1abRpZ0uXe8fYkAg1iQoWgx_pwdRw7Fy9e10ML61_wIWNdbAeN--USAjicSMNriQcIIKRa0f5MULv7O7qiEUEsAiHKY_mrU8nC2iwKjL15_1mwUop969KNyMZeHQ9jmMld1pVAQsalnXoxqqZwcYO867pPTB1-J8iJpzaMGe9fjpzg14UfAV7Gn7x7BfxQ7rP10OQywf1mFgUwb3sLyNiCLvlYX4bwQIfYzBB3jAGpWgVtoEDEv6P9c_9aMnxhWDJXrQWIsavsbTdCI7yu2QDUq0dZnhIirELaiBDXCpU_E7TTQhx2KjZK84Zn-2UhI67yi20u5tQh4M7F-kuGUkDupripeNB9ECbXDuWx_JvIivPYxyKazZbovPmazDpPNUMmA7qsfGjZL0pdvMn9kV4ovkGO_NDeTYvTk2kFYP6Agl_jSOlPmkYJ7TADj5RfQYxRhizRvoeA-eFFmTL1C1uxMLnrBkONShRWgsHra6pOd2L4GnmF084bNYm4abiFNswzP5JVnmU7JVaOZ-89l4QwV5qnmAh3mctvLWtEYABTYWKzX_77mTDKiSzkX5U1U_AmLKSNg-KBpzHMtWTXq0sZin4E3VWSdZNctrjJtvwsQ_1kDJH-FN9CJrDJv3R3tkc3EUOyew25KKX-2dj0cLmJxIt1KhGbdQCcWwD371Su4TFlZ8C19SZcrm99tKlOXydbu2ty31TnKub85OkSQNATumpmK8ktAPJZr9zLTmrFPP4ogyDx5j0TEu1_xu-6COoZ_h3J7mU3TGfgFStzTOO_0L8K52zuNtY1zoP_L6tkM2FMpNt4f4oqMWtqOIrOIzL5GmgyIsvt_4kBraqr1_EqwudHcptysDxMzWnq03z1G9JtZn9pN_YkpYGY0UfRI6kj4pOpZVIBgUBrPeMxxQxoduefSBEFgGslrTN2RKGx2F8IpqU7wZy0?></g></svg>